<svg width="172" height="109" viewBox="0 0 172 109" fill="none" xmlns="http://www.w3.org/2000/svg">
<path d="M57.18 71.288H56.508L50.712 66.332C52.672 64.036 54.324 61.544 55.668 58.856C57.068 56.168 57.768 53.9 57.768 52.052C57.768 50.596 57.348 49.504 56.508 48.776C55.724 47.992 54.8 47.6 53.736 47.6C52.56 47.6 51.216 47.992 49.704 48.776C48.192 49.504 46.68 50.4 45.168 51.464C43.656 52.528 42.284 53.536 41.052 54.488L41.136 77.84H40.296L33.576 73.304L33.66 59.948C31.7 61.404 30.076 62.524 28.788 63.308C27.556 64.092 26.408 64.652 25.344 64.988C24.28 65.268 23.104 65.408 21.816 65.408C18.96 65.408 16.384 64.652 14.088 63.14C11.848 61.628 10.056 59.724 8.712 57.428C7.424 55.076 6.78 52.752 6.78 50.456C6.78 48.048 7.424 45.976 8.712 44.24C10 42.504 11.652 41.16 13.668 40.208C15.74 39.256 17.868 38.78 20.052 38.78C22.908 38.78 25.484 39.536 27.78 41.048C30.132 42.504 32.148 44.268 33.828 46.34L33.996 31.22H3.504L0.648 25.76V24.92H66.588L69.444 30.38V31.22H40.884L40.968 46.004C42.816 44.716 44.608 43.624 46.344 42.728C48.136 41.776 49.676 41.3 50.964 41.3C51.972 41.3 53.148 41.636 54.492 42.308C55.892 42.924 57.236 43.876 58.524 45.164C59.868 46.452 60.96 48.048 61.8 49.952C62.696 51.856 63.144 54.068 63.144 56.588C63.144 59.164 62.612 61.6 61.548 63.896C60.54 66.192 59.084 68.656 57.18 71.288ZM33.744 51.464V50.96C32.288 49.392 30.552 48.048 28.536 46.928C26.52 45.808 24.42 45.248 22.236 45.248C19.828 45.248 17.644 45.976 15.684 47.432C13.78 48.888 12.828 50.988 12.828 53.732C12.828 55.86 13.388 57.456 14.508 58.52C15.628 59.528 16.944 60.032 18.456 60.032C19.8 60.032 21.312 59.612 22.992 58.772C24.728 57.876 26.52 56.784 28.368 55.496C30.216 54.208 32.008 52.864 33.744 51.464ZM46.4293 91.28L50.4613 96.488C49.5653 97.048 48.1653 97.72 46.2613 98.504C44.3013 99.344 42.0053 99.764 39.3733 99.764C36.1253 99.764 33.4653 99.092 31.3933 97.748C29.3213 96.46 27.7813 94.892 26.7733 93.044C25.7653 91.196 25.2613 89.544 25.2613 88.088C25.2613 86.296 25.8773 84.728 27.1093 83.384C28.2853 82.04 29.8813 80.948 31.8973 80.108C33.8573 79.268 35.9853 78.764 38.2813 78.596L42.1453 83.636V84.14C39.2333 84.364 36.9373 84.84 35.2573 85.568C33.5773 86.296 32.4013 87.108 31.7293 88.004C31.0013 88.956 30.6373 89.852 30.6373 90.692C30.6373 91.476 31.0293 92.288 31.8133 93.128C32.5413 93.968 34.0253 94.388 36.2653 94.388C37.6653 94.388 39.2053 94.164 40.8853 93.716C42.5093 93.268 44.3573 92.456 46.4293 91.28ZM82.1864 78.26H81.3464L74.6264 73.892L74.9624 31.22H67.5704L64.7144 25.76V24.92H75.3824C74.3744 23.352 73.6464 21.812 73.1984 20.3C72.7504 18.732 72.5264 17.22 72.5264 15.764C72.5264 13.524 73.0864 11.452 74.2064 9.548C75.3824 7.644 77.1744 6.104 79.5824 4.928C81.9904 3.696 85.0144 3.08 88.6544 3.08C91.9584 3.08 95.3184 3.668 98.7344 4.844C102.15 5.964 105.79 7.812 109.654 10.388C113.518 12.964 117.718 16.352 122.254 20.552L119.986 23.156C117.018 20.636 113.966 18.368 110.83 16.352C107.694 14.28 104.474 12.628 101.17 11.396C97.9224 10.164 94.6184 9.548 91.2584 9.548C88.2904 9.548 85.8544 10.052 83.9504 11.06C82.1024 12.012 80.7584 13.244 79.9184 14.756C79.0784 16.268 78.6584 17.892 78.6584 19.628C78.6584 20.58 78.7704 21.476 78.9944 22.316C79.2744 23.156 79.6384 24.024 80.0864 24.92H88.9904L91.8464 30.38V31.22H82.0184L82.1864 78.26ZM113.737 63.98C111.553 63.98 109.397 63.476 107.269 62.468C105.141 61.46 103.209 60.172 101.473 58.604C99.7369 57.036 98.3369 55.384 97.2729 53.648C96.2649 51.912 95.7329 50.316 95.6769 48.86C95.6209 48.076 95.5929 47.292 95.5929 46.508C95.5929 45.724 95.5929 45.024 95.5929 44.408C95.5929 42.56 95.5929 40.46 95.5929 38.108C95.6489 35.756 95.6769 33.46 95.6769 31.22H89.9649L87.1089 25.76V24.92H137.005L139.861 30.38V31.22H130.033L130.201 77.84H129.361L122.641 73.472L122.725 61.292C121.213 62.244 119.701 62.944 118.189 63.392C116.677 63.784 115.193 63.98 113.737 63.98ZM102.817 35.588L102.985 50.792C103.041 52.584 103.433 54.068 104.161 55.244C104.889 56.364 105.757 57.204 106.765 57.764C107.829 58.268 108.809 58.52 109.705 58.52C112.729 58.52 116.621 56.924 121.381 53.732L102.817 35.588ZM122.977 31.22H103.573L122.809 50.204L122.977 31.22Z" fill="#DCEDDB"/>
<path d="M62.46 91.26V89.7C62.46 88.22 62.24 87.09 61.8 86.31C61.38 85.53 60.49 85.14 59.13 85.14C56.93 85.14 55.83 86.62 55.83 89.58V91.14C55.83 94.32 56.93 95.91 59.13 95.91C60.55 95.91 61.48 95.38 61.92 94.32C62.28 93.48 62.46 92.46 62.46 91.26ZM66.36 90.36C66.36 94.06 65.66 96.54 64.26 97.8C63.08 98.88 61.37 99.42 59.13 99.42C56.27 99.42 54.34 98.58 53.34 96.9C52.4 95.36 51.93 93.18 51.93 90.36C51.93 87.72 52.4 85.65 53.34 84.15C54.38 82.47 56.27 81.63 59.01 81.63C61.77 81.63 63.68 82.37 64.74 83.85C65.82 85.31 66.36 87.48 66.36 90.36ZM83.6691 99H79.7691V88.05C79.7691 87.07 79.5691 86.4 79.1691 86.04C78.7691 85.68 78.2091 85.5 77.4891 85.5L73.9791 86.97V99H70.0791V81.87H72.9891L73.8891 83.91L78.6891 81.69C80.0291 81.69 81.1891 82.19 82.1691 83.19C83.1691 84.17 83.6691 85.61 83.6691 87.51V99ZM101.766 99H97.8663V88.05C97.8663 87.07 97.6663 86.4 97.2663 86.04C96.8663 85.68 96.3063 85.5 95.5863 85.5L92.0763 86.97V99H88.1763V81.87H91.0863L91.9863 83.91L96.7863 81.69C98.1263 81.69 99.2863 82.19 100.266 83.19C101.266 84.17 101.766 85.61 101.766 87.51V99ZM119.414 91.35H109.424C109.424 92.91 109.664 94.05 110.144 94.77C110.644 95.49 111.634 95.85 113.114 95.85C114.074 95.85 114.784 95.55 115.244 94.95C115.704 94.33 115.934 93.74 115.934 93.18H119.444C119.444 95.32 118.864 96.89 117.704 97.89C116.564 98.89 115.044 99.39 113.144 99.39C111.264 99.39 109.804 99.12 108.764 98.58C106.624 97.48 105.554 94.56 105.554 89.82C105.554 87 106.164 84.94 107.384 83.64C108.604 82.32 110.464 81.66 112.964 81.66C117.304 81.66 119.474 84.07 119.474 88.89C119.474 89.41 119.454 90.23 119.414 91.35ZM109.514 88.68H115.934C115.934 87.36 115.684 86.4 115.184 85.8C114.684 85.2 113.914 84.9 112.874 84.9C111.854 84.9 111.034 85.21 110.414 85.83C109.814 86.43 109.514 87.38 109.514 88.68ZM132.669 92.73L136.209 92.7C136.189 92.86 136.169 93.15 136.149 93.57C136.129 93.99 136.109 94.28 136.089 94.44C136.089 94.58 136.069 94.81 136.029 95.13C135.989 95.45 135.939 95.69 135.879 95.85C135.839 95.99 135.779 96.18 135.699 96.42C135.339 97.46 134.359 98.28 132.759 98.88C131.739 99.24 130.669 99.42 129.549 99.42C128.449 99.42 127.449 99.24 126.549 98.88C125.649 98.52 124.939 98.06 124.419 97.5C123.239 96.26 122.649 93.94 122.649 90.54C122.649 87.12 123.239 84.79 124.419 83.55C124.939 82.99 125.649 82.53 126.549 82.17C127.449 81.81 128.449 81.63 129.549 81.63C131.709 81.63 133.349 82.17 134.469 83.25C135.589 84.33 136.149 85.83 136.149 87.75H132.609C132.609 86.87 132.389 86.22 131.949 85.8C131.509 85.36 130.689 85.14 129.489 85.14C128.309 85.14 127.519 85.51 127.119 86.25C126.739 86.99 126.549 88.1 126.549 89.58V91.14C126.549 93.52 127.009 94.98 127.929 95.52C128.349 95.78 128.899 95.91 129.579 95.91C130.259 95.91 130.809 95.85 131.229 95.73C131.669 95.59 131.979 95.36 132.159 95.04C132.359 94.72 132.489 94.41 132.549 94.11C132.609 93.79 132.649 93.33 132.669 92.73ZM147.686 99H145.256C143.776 99 142.646 98.56 141.866 97.68C141.106 96.8 140.726 95.75 140.726 94.53V85.53H139.076V82.56H140.726V79.2H144.626V82.56H147.386V85.53H144.626V94.29C144.626 95.23 145.076 95.7 145.976 95.7H147.686V99Z" fill="#DCEDDB"/>
<rect width="9.375" height="9.375" transform="translate(142.625 68.0625)" fill="white" fill-opacity="0.03"/>
<path d="M151.884 69.2941C150.87 68.5259 149.31 68.0671 147.71 68.0671C145.731 68.0671 144.119 68.758 143.287 69.9626C142.896 70.5281 142.679 71.1984 142.644 71.9537C142.612 72.6263 142.725 73.3705 142.979 74.1709C143.848 71.5669 146.274 69.5285 149.07 69.5285C149.07 69.5285 146.454 70.2169 144.808 72.3503C144.433 72.8341 144.131 73.371 143.914 73.9435C143.449 75.0501 143.21 76.2384 143.211 77.4386H144.383C144.383 77.4386 144.205 76.3195 144.514 75.0328C144.972 75.0981 145.433 75.1327 145.895 75.1365C146.973 75.1365 147.738 74.9033 148.306 74.4029C148.815 73.9546 149.096 73.3517 149.393 72.7142C149.846 71.7398 150.36 70.6359 151.852 69.7833C151.894 69.7593 151.93 69.7252 151.956 69.6841C151.981 69.643 151.996 69.5962 152 69.5478C152.003 69.4995 151.994 69.4511 151.974 69.407C151.953 69.3629 151.923 69.3245 151.884 69.2953V69.2941Z" fill="#3BB428"/>
<rect width="10.625" height="10.625" transform="matrix(-1 0 0 1 142.625 65.5625)" fill="white" fill-opacity="0.03"/>
<path d="M132.131 66.9584C133.28 66.0878 135.049 65.5679 136.862 65.5679C139.105 65.5679 140.932 66.3508 141.875 67.7161C142.318 68.3569 142.563 69.1166 142.604 69.9726C142.64 70.7349 142.511 71.5783 142.223 72.4854C141.239 69.5343 138.49 67.224 135.32 67.224C135.32 67.224 138.286 68.0043 140.151 70.4222C140.576 70.9704 140.918 71.579 141.164 72.2278C141.691 73.4819 141.962 74.8286 141.961 76.1889H140.633C140.633 76.1889 140.835 74.9205 140.484 73.4622C139.966 73.5362 139.443 73.5755 138.919 73.5798C137.698 73.5798 136.83 73.3155 136.186 72.7484C135.61 72.2404 135.292 71.5571 134.955 70.8346C134.441 69.7302 133.859 68.4791 132.167 67.5129C132.12 67.4857 132.079 67.4471 132.05 67.4005C132.021 67.3539 132.004 67.3008 132.001 67.246C131.997 67.1912 132.007 67.1363 132.03 67.0864C132.053 67.0364 132.088 66.9929 132.131 66.9597V66.9584Z" fill="#3BB428"/>
</svg>
