<svg width="202" height="122" viewBox="0 0 202 122" fill="none" xmlns="http://www.w3.org/2000/svg">
<path d="M66.7659 79.6629H66.0203L59.59 74.1645C61.7645 71.6173 63.5973 68.8526 65.0884 65.8704C66.6416 62.8882 67.4182 60.372 67.4182 58.3218C67.4182 56.7064 66.9523 55.4949 66.0203 54.6873C65.1505 53.8175 64.1254 53.3826 62.945 53.3826C61.6403 53.3826 60.1492 53.8175 58.4717 54.6873C56.7943 55.4949 55.1168 56.489 53.4393 57.6694C51.7619 58.8499 50.2397 59.9682 48.8729 61.0244L48.9661 86.9319H48.0342L40.5787 81.8995L40.6719 67.0819C38.4974 68.6972 36.6957 69.9398 35.2668 70.8096C33.8999 71.6794 32.6263 72.3007 31.4459 72.6735C30.2654 72.9841 28.9607 73.1394 27.5318 73.1394C24.3632 73.1394 21.5053 72.3007 18.9581 70.6232C16.4729 68.9457 14.4848 66.8334 12.9937 64.2861C11.5648 61.6767 10.8503 59.0984 10.8503 56.5511C10.8503 53.8796 11.5648 51.5809 12.9937 49.6549C14.4227 47.7289 16.2555 46.2378 18.4921 45.1816C20.7908 44.1254 23.1517 43.5974 25.5747 43.5974C28.7433 43.5974 31.6012 44.4361 34.1485 46.1136C36.7579 47.7289 38.9945 49.6859 40.8583 51.9847L41.0447 35.21H7.21579L4.04724 29.1525V28.2206H77.2035L80.372 34.2781V35.21H48.6865L48.7797 51.6119C50.8299 50.183 52.818 48.9715 54.744 47.9774C56.7321 46.9212 58.4407 46.3931 59.8696 46.3931C60.9879 46.3931 62.2926 46.7659 63.7837 47.5114C65.3369 48.1949 66.828 49.251 68.257 50.68C69.748 52.1089 70.9595 53.8796 71.8915 55.992C72.8855 58.1043 73.3826 60.5584 73.3826 63.3542C73.3826 66.2121 72.7923 68.9147 71.6119 71.4619C70.4936 74.0092 68.8782 76.7429 66.7659 79.6629ZM40.7651 57.6694V57.1103C39.1498 55.3707 37.2238 53.8796 34.9872 52.637C32.7506 51.3945 30.4208 50.7732 27.9977 50.7732C25.3262 50.7732 22.9032 51.5809 20.7287 53.1962C18.6164 54.8115 17.5602 57.1413 17.5602 60.1856C17.5602 62.5465 18.1815 64.3172 19.424 65.4976C20.6666 66.6159 22.1266 67.1751 23.8041 67.1751C25.2952 67.1751 26.9726 66.7091 28.8365 65.7772C30.7625 64.7831 32.7506 63.5716 34.8008 62.1427C36.851 60.7137 38.8392 59.2227 40.7651 57.6694ZM54.8387 101.843L59.3119 107.621C58.3179 108.242 56.7647 108.988 54.6523 109.857C52.4778 110.789 49.9305 111.255 47.0105 111.255C43.407 111.255 40.4559 110.51 38.1572 109.019C35.8584 107.59 34.1499 105.85 33.0316 103.8C31.9133 101.75 31.3541 99.9168 31.3541 98.3014C31.3541 96.3133 32.0375 94.5737 33.4044 93.0826C34.7091 91.5916 36.4797 90.3801 38.7164 89.4481C40.8908 88.5162 43.2517 87.957 45.799 87.7707L50.0859 93.3622V93.9214C46.8552 94.1699 44.3079 94.698 42.4441 95.5056C40.5802 96.3133 39.2755 97.2142 38.53 98.2082C37.7223 99.2644 37.3185 100.258 37.3185 101.19C37.3185 102.06 37.7534 102.961 38.6232 103.893C39.4308 104.825 41.0772 105.291 43.5624 105.291C45.1156 105.291 46.8241 105.042 48.688 104.545C50.4897 104.048 52.5399 103.147 54.8387 101.843ZM94.5089 87.3979H93.577L86.1216 82.5519L86.4943 35.21H78.2934L75.1248 29.1525V28.2206H86.9603C85.842 26.481 85.0343 24.7724 84.5373 23.095C84.0402 21.3554 83.7917 19.6779 83.7917 18.0626C83.7917 15.5774 84.413 13.2787 85.6556 11.1663C86.9603 9.05395 88.9484 7.34542 91.6199 6.04072C94.2914 4.6739 97.6464 3.99048 101.685 3.99048C105.35 3.99048 109.078 4.64283 112.868 5.94753C116.658 7.1901 120.696 9.24034 124.983 12.0982C129.27 14.9562 133.929 18.7149 138.962 23.3745L136.446 26.2635C133.153 23.4677 129.767 20.9515 126.288 18.7149C122.808 16.4162 119.236 14.5834 115.57 13.2166C111.967 11.8497 108.301 11.1663 104.574 11.1663C101.281 11.1663 98.5783 11.7255 96.4659 12.8438C94.4157 13.9 92.9246 15.2668 91.9927 16.9443C91.0608 18.6217 90.5948 20.4235 90.5948 22.3494C90.5948 23.4056 90.7191 24.3997 90.9676 25.3316C91.2782 26.2635 91.682 27.2265 92.1791 28.2206H102.057L105.226 34.2781V35.21H94.3225L94.5089 87.3979ZM129.512 71.5551C127.089 71.5551 124.697 70.996 122.336 69.8777C119.975 68.7594 117.832 67.3304 115.906 65.5908C113.98 63.8512 112.427 62.0184 111.246 60.0924C110.128 58.1665 109.538 56.3958 109.476 54.7805C109.414 53.9107 109.383 53.0409 109.383 52.1711C109.383 51.3013 109.383 50.5247 109.383 49.8413C109.383 47.791 109.383 45.4612 109.383 42.8518C109.445 40.2424 109.476 37.6952 109.476 35.21H103.139L99.9701 29.1525V28.2206H155.327L158.495 34.2781V35.21H147.592L147.778 86.9319H146.846L139.391 82.0859L139.484 68.573C137.806 69.6292 136.129 70.4058 134.451 70.9028C132.774 71.3377 131.128 71.5551 129.512 71.5551ZM117.397 40.056L117.584 56.9239C117.646 58.912 118.081 60.5584 118.888 61.8631C119.696 63.1057 120.659 64.0376 121.777 64.6589C122.958 65.218 124.045 65.4976 125.039 65.4976C128.394 65.4976 132.712 63.727 137.993 60.1856L117.397 40.056ZM139.763 35.21H118.236L139.577 56.2716L139.763 35.21Z" fill="black"/>
<path d="M74.8294 101.964V100.233C74.8294 98.5914 74.5854 97.3377 74.0972 96.4723C73.6312 95.607 72.6438 95.1743 71.135 95.1743C68.6943 95.1743 67.4739 96.8163 67.4739 100.1V101.831C67.4739 105.359 68.6943 107.123 71.135 107.123C72.7104 107.123 73.7422 106.535 74.2303 105.359C74.6297 104.427 74.8294 103.295 74.8294 101.964ZM79.1562 100.966C79.1562 105.07 78.3796 107.822 76.8264 109.22C75.5173 110.418 73.6201 111.017 71.135 111.017C67.962 111.017 65.8208 110.085 64.7114 108.221C63.6685 106.513 63.1471 104.094 63.1471 100.966C63.1471 98.0366 63.6685 95.7401 64.7114 94.076C65.8652 92.2121 67.962 91.2802 71.0019 91.2802C74.0639 91.2802 76.1829 92.1012 77.3589 93.7431C78.5571 95.3629 79.1562 97.7704 79.1562 100.966ZM98.3595 110.551H94.0327V98.4028C94.0327 97.3155 93.8108 96.5722 93.3671 96.1728C92.9233 95.7734 92.302 95.5737 91.5032 95.5737L87.6091 97.2046V110.551H83.2823V91.5464H86.5108L87.5092 93.8097L92.8345 91.3467C94.3212 91.3467 95.6081 91.9015 96.6954 93.0109C97.8048 94.0981 98.3595 95.6957 98.3595 97.8037V110.551ZM118.437 110.551H114.11V98.4028C114.11 97.3155 113.889 96.5722 113.445 96.1728C113.001 95.7734 112.38 95.5737 111.581 95.5737L107.687 97.2046V110.551H103.36V91.5464H106.589L107.587 93.8097L112.912 91.3467C114.399 91.3467 115.686 91.9015 116.773 93.0109C117.883 94.0981 118.437 95.6957 118.437 97.8037V110.551ZM138.016 102.064H126.933C126.933 103.795 127.199 105.059 127.731 105.858C128.286 106.657 129.384 107.056 131.026 107.056C132.091 107.056 132.879 106.724 133.389 106.058C133.9 105.37 134.155 104.715 134.155 104.094H138.049C138.049 106.468 137.406 108.21 136.119 109.32C134.854 110.429 133.168 110.984 131.06 110.984C128.974 110.984 127.354 110.684 126.2 110.085C123.826 108.865 122.639 105.625 122.639 100.366C122.639 97.2379 123.316 94.9524 124.669 93.5101C126.023 92.0457 128.086 91.3135 130.86 91.3135C135.675 91.3135 138.082 93.9872 138.082 99.3347C138.082 99.9116 138.06 100.821 138.016 102.064ZM127.032 99.1017H134.155C134.155 97.6373 133.878 96.5722 133.323 95.9065C132.768 95.2409 131.914 94.908 130.76 94.908C129.628 94.908 128.719 95.252 128.031 95.9398C127.365 96.6055 127.032 97.6594 127.032 99.1017ZM152.722 103.595L156.649 103.562C156.627 103.739 156.605 104.061 156.583 104.527C156.561 104.993 156.538 105.315 156.516 105.492C156.516 105.647 156.494 105.903 156.45 106.258C156.405 106.613 156.35 106.879 156.283 107.056C156.239 107.212 156.172 107.422 156.084 107.689C155.684 108.843 154.597 109.752 152.822 110.418C151.69 110.817 150.503 111.017 149.261 111.017C148.04 111.017 146.931 110.817 145.932 110.418C144.934 110.019 144.146 109.508 143.569 108.887C142.26 107.511 141.605 104.937 141.605 101.165C141.605 97.371 142.26 94.786 143.569 93.4103C144.146 92.789 144.934 92.2787 145.932 91.8793C146.931 91.4799 148.04 91.2802 149.261 91.2802C151.657 91.2802 153.476 91.8793 154.719 93.0775C155.962 94.2757 156.583 95.9398 156.583 98.0699H152.655C152.655 97.0936 152.411 96.3725 151.923 95.9065C151.435 95.4184 150.525 95.1743 149.194 95.1743C147.885 95.1743 147.008 95.5848 146.565 96.4058C146.143 97.2268 145.932 98.4582 145.932 100.1V101.831C145.932 104.471 146.443 106.091 147.463 106.69C147.929 106.979 148.539 107.123 149.294 107.123C150.048 107.123 150.658 107.056 151.124 106.923C151.613 106.768 151.956 106.513 152.156 106.158C152.378 105.803 152.522 105.459 152.589 105.126C152.655 104.771 152.7 104.261 152.722 103.595ZM169.382 110.551H166.686C165.044 110.551 163.79 110.063 162.925 109.087C162.082 108.11 161.66 106.945 161.66 105.592V95.607H159.83V92.312H161.66V88.5843H165.987V92.312H169.049V95.607H165.987V105.326C165.987 106.369 166.486 106.89 167.485 106.89H169.382V110.551Z" fill="black"/>
<rect width="10.8318" height="10.401" transform="translate(167.978 75.5107)" fill="white" fill-opacity="0.03"/>
<path d="M178.676 76.8771C177.504 76.0249 175.702 75.5159 173.853 75.5159C171.567 75.5159 169.703 76.2823 168.742 77.6188C168.291 78.2461 168.041 78.9898 167.999 79.8277C167.963 80.574 168.094 81.3996 168.387 82.2875C169.391 79.3987 172.193 77.1371 175.425 77.1371C175.425 77.1371 172.401 77.9009 170.5 80.2678C170.067 80.8045 169.718 81.4002 169.467 82.0353C168.93 83.2631 168.654 84.5814 168.655 85.9129H170.009C170.009 85.9129 169.803 84.6713 170.16 83.2438C170.689 83.3162 171.222 83.3547 171.756 83.3588C173.001 83.3588 173.886 83.1001 174.542 82.545C175.13 82.0477 175.454 81.3788 175.797 80.6715C176.321 79.5904 176.915 78.3657 178.639 77.4199C178.688 77.3933 178.729 77.3554 178.758 77.3098C178.788 77.2642 178.805 77.2123 178.809 77.1586C178.813 77.1049 178.802 77.0512 178.779 77.0023C178.756 76.9534 178.72 76.9108 178.676 76.8784V76.8771Z" fill="#3BB428"/>
<rect width="12.276" height="11.7878" transform="matrix(-1 0 0 1 167.978 72.7374)" fill="white" fill-opacity="0.03"/>
<path d="M155.854 74.286C157.181 73.3201 159.224 72.7433 161.32 72.7433C163.911 72.7433 166.022 73.6119 167.112 75.1266C167.623 75.8376 167.906 76.6804 167.953 77.63C167.995 78.4758 167.847 79.4115 167.514 80.4179C166.377 77.1438 163.2 74.5807 159.538 74.5807C159.538 74.5807 162.965 75.4464 165.119 78.1288C165.611 78.7371 166.005 79.4122 166.29 80.132C166.898 81.5234 167.211 83.0175 167.211 84.5266H165.676C165.676 84.5266 165.909 83.1195 165.504 81.5016C164.905 81.5837 164.301 81.6272 163.696 81.632C162.285 81.632 161.282 81.3388 160.539 80.7096C159.873 80.146 159.505 79.3879 159.116 78.5863C158.522 77.3611 157.849 75.9731 155.895 74.9012C155.84 74.871 155.794 74.8281 155.76 74.7764C155.726 74.7248 155.707 74.6659 155.702 74.605C155.698 74.5442 155.71 74.4834 155.736 74.428C155.763 74.3725 155.803 74.3243 155.854 74.2875V74.286Z" fill="#3BB428"/>
</svg>
